<svg xmlns="http://www.w3.org/2000/svg" viewBox="0 0 487.37 762.78"><defs><style>.cls-1{fill:#efefef;}.cls-2{fill:none;}.cls-2,.cls-3{stroke:#000;stroke-miterlimit:10;stroke-width:15px;}.cls-3{fill:#fff;}</style></defs><g id="Layer_2" data-name="Layer 2"><g id="Layer_8" data-name="Layer 8"><polygon class="cls-1" points="7.5 27.47 101.97 7.66 196.45 27.47 196.45 562.22 290.92 582.83 290.92 358.05 198.53 337.61 198.25 206.39 290.92 186.18 385.4 206.39 385.4 338.24 479.87 358.05 479.87 624.05 385.4 644.66 385.4 734.49 290.92 755.1 101.97 713.88 101.97 583.23 7.5 562.22 7.5 27.47"/><polygon class="cls-2" points="7.5 27.47 101.97 7.66 196.45 27.47 196.45 562.22 101.97 582.83 7.5 562.22 7.5 27.47"/><polyline class="cls-2" points="101.97 582.83 101.97 48.08 7.5 27.47"/><line class="cls-3" x1="196.45" y1="27.47" x2="101.97" y2="48.08"/><polyline class="cls-2" points="290.92 582.83 196.45 562.22 101.97 582.83 101.97 713.88 290.92 755.1 385.4 734.49 385.4 644.66"/><polyline class="cls-2" points="101.97 582.83 290.92 624.05 290.92 755.1"/><polygon class="cls-2" points="196.45 205.99 290.92 186.18 385.4 206.39 385.4 338.24 290.92 358.05 196.45 337.04 196.45 205.99"/><polyline class="cls-2" points="290.92 358.05 290.92 227 196.45 205.99"/><line class="cls-3" x1="290.92" y1="227" x2="385.4" y2="206.39"/><polygon class="cls-2" points="290.92 358.05 385.4 338.24 479.87 358.05 479.87 624.05 385.4 644.66 290.92 624.05 290.92 358.05"/><polyline class="cls-2" points="385.4 644.66 385.4 378.66 290.92 358.05"/><line class="cls-3" x1="385.4" y1="378.66" x2="479.87" y2="358.05"/><polygon points="19.03 25.05 19.03 29.98 94.47 46.44 111.94 45.9 176.92 31.73 180.49 24.12 106.87 8.69 94.46 8.69 19.03 25.05"/><polygon points="101.97 54.95 101.97 569.4 108 584.6 188.1 562.22 196.45 554.17 196.45 40.28 190.27 28.82 105.74 46.44 101.97 54.95"/><polygon points="117.49 586.21 282.48 622.2 290.92 615.09 290.92 589.71 279.43 580.32 204.21 563.91 188.1 562.22 117.49 586.21"/><polygon points="290.92 746.53 298.89 753.36 378.91 735.91 385.4 726.22 385.4 652.32 376.67 642.75 299.45 625.91 290.92 634.27 290.92 746.53"/><polygon points="385.4 638.22 394.13 642.75 471.34 625.91 479.87 611.14 479.87 368.36 468.66 360.5 393.43 378.66 385.4 389.46 385.4 638.22"/><polygon points="300.88 355.96 309.56 362.12 375.38 378.66 393.43 378.66 464.51 360.5 459.57 353.8 390.61 338.24 378.2 339.25 300.88 355.96"/><path d="M288,352.79c3,0,9.84,3.82,9.84,3.82l84.9-18.37,2.71-10.83V216.69l-11.71-10.3L297,227l-6.05,8.46Z"/><polygon points="220.24 201 220.24 208.24 280.05 227 296.97 227 366.81 208.24 363.86 201.78 297.54 186.18 285.13 188.64 220.24 201"/></g></g></svg>